<?xml version="1.0" ?><svg viewBox="0 0 60 60" xmlns="http://www.w3.org/2000/svg"><title/><g id="colour"><polygon fill="#ff9f00" points="30 27 26 1 42 36 27 33 31 59 15 24 30 27"/><path d="M27,33l15,3L26,1l1.49768,9.73511,9.83539,21.51483L24.0838,29.66015a1,1,0,0,0-1.1732,1.17357L27,49.875,31,59Z" fill="#e28703"/></g><g data-name="Layer 1" id="Layer_1"><path d="M42.90967,35.58483l-16-35a1,1,0,0,0-1.89795.56738l3.78271,24.5874L15.19629,23.01989a1,1,0,0,0-1.106,1.396l16,35a1,1,0,0,0,1.89795-.56738L28.20557,34.2611l13.59814,2.71973a1,1,0,0,0,1.106-1.396ZM27.19629,32.01989a1,1,0,0,0-1.18457,1.13232l2.90576,18.88721L16.72315,25.36461l13.08057,2.61621a1,1,0,0,0,1.18457-1.13232L28.08252,7.96129,40.27686,34.6361Z"/></g></svg>